# xmcd CD database file
#
# Track frame offsets:
#	150
#	26320
#	45959
#	79641
#	110446
#	133804
#	169020
#	198114
#	227244
#	250598
#
# Disc length: 3590 seconds
#
# Revision: 0
# Processed by: cddbd v1.5.2PL0 Copyright (c) Steve Scherf et al.
# Submitted via: CDex 1.70beta2
#
DISCID=6f0e040a
DTITLE=Simon Oslender - About Time
DYEAR=2019
DGENRE=Jazz
TTITLE0=Warehouse
TTITLE1=One for G.D.
TTITLE2=Summer in Berlin
TTITLE3=Don't Ever Look back
TTITLE4=Fragile
TTITLE5=Feel Like Makin' Love
TTITLE6=Rooftop Party
TTITLE7=Edge of Life
TTITLE8=When It Hits You
TTITLE9=Lillaby for Tom
EXTD=YEAR: 2019
EXTT0=
EXTT1=
EXTT2=
EXTT3=
EXTT4=
EXTT5=
EXTT6=
EXTT7=
EXTT8=
EXTT9=
PLAYORDER=
